<svg xmlns="http://www.w3.org/2000/svg" viewBox="0 0 400 300"><g id="_546_umrella_flatline" data-name="#546_umrella_flatline"><path d="M269.66,275.94c2.22,0,4.45-.06,6.68-.1,9.87-.2,21.62,1.94,30-4.35,3-2.28,5.93-4.93,9.57-6,3.21-1,6.68-.55,10-1.24,14.68-3.07,13.79-17.6,6-26.84-7.56-9-19.3-12.16-28.23-19.36-5.43-4.39-13.06-3.5-19.29-3.5a76.45,76.45,0,0,0-47,16.19c-4.79,3.67-9.18,6.25-12.76,11.91a68.66,68.66,0,0,0-8.72,21.08,12,12,0,0,0-.31,5.61c1.18,4.5,6.34,6,9.48,6.1C239.88,275.85,254.78,276.11,269.66,275.94Z" fill="#ed8936"/><path d="M288.37,276.54c-1.82,0-3.65-.06-5.47-.11-2.29-.07-4.45-.13-6.55-.09s-4.46.08-6.69.1h0c-12.94.14-27.13,0-44.67-.51-3.08-.09-8.66-1.55-9.94-6.47a12.39,12.39,0,0,1,.3-5.85,70,70,0,0,1,8.78-21.24c3-4.74,6.6-7.39,10.41-10.19.81-.59,1.64-1.2,2.48-1.85,14.09-10.77,30.44-16.42,47.31-16.29.87,0,1.77,0,2.69,0,5.67-.11,12.1-.23,16.91,3.65a81.43,81.43,0,0,0,11.77,7.42c5.89,3.26,12,6.63,16.53,12,4.93,5.84,6.86,13.25,4.92,18.88-1.09,3.16-3.92,7.25-11.19,8.77a30.47,30.47,0,0,1-4.53.5A23.75,23.75,0,0,0,316,266c-2.88.86-5.36,2.79-7.75,4.65-.56.43-1.1.86-1.66,1.28C301.38,275.83,294.94,276.54,288.37,276.54Zm-10.6-1.21c1.67,0,3.37.05,5.15.1,8.2.24,16.68.49,23.11-4.34.55-.41,1.09-.84,1.64-1.26,2.47-1.93,5-3.92,8.08-4.83a25.1,25.1,0,0,1,5.62-.77,30.41,30.41,0,0,0,4.38-.48c5.4-1.12,9-3.93,10.45-8.12,1.83-5.3,0-12.33-4.74-17.91C327,232.49,321,229.16,315.22,226a81.19,81.19,0,0,1-11.92-7.52c-4.53-3.66-10.77-3.54-16.26-3.43-1.1,0-2.17,0-3.22,0-16.46,0-32.42,5.55-46.2,16.09-.84.65-1.67,1.26-2.49,1.86-3.73,2.74-7.25,5.33-10.15,9.92a68.65,68.65,0,0,0-8.65,20.92,11.66,11.66,0,0,0-.32,5.38c1.14,4.35,6.2,5.64,9,5.72,17.53.5,31.71.66,44.63.51h0c2.23,0,4.45-.06,6.68-.1Z" fill="#231f20"/><path d="M277.18,200c-20-6.79-40.66-11-61.48-11.39-34.84-.62-68,11.44-100,26.46-12.37,5.82-24.79,12.21-35.45,21.69-7.43,6.61-18.07,22.34-10.89,33.87a13.44,13.44,0,0,0,6.34,5.13c14.17,5.94,30.38,1.7,44.76-.45,41.88-6.26,85.16,9.64,126.35-4.73,3.21-1.12,7.1-3.79,6.3-7.57-.64-3.07-4.17-4.45-4.73-7.55-.65-3.6,3-6.08,6-7.14,20.3-7.1,43.17-6.3,60.84-19.88a8.42,8.42,0,0,0,3.34-4.19c1.18-4.19-2.81-7.76-6.3-9.5A282.24,282.24,0,0,0,277.18,200Z" fill="#fff"/><path d="M92.38,279.27a43.13,43.13,0,0,1-16.9-3.09,13.76,13.76,0,0,1-6.58-5.33c-3.24-5.21-3.27-11.86-.07-19.24a46.85,46.85,0,0,1,11.06-15.27c11.1-9.87,24.18-16.41,35.57-21.76,28.7-13.48,63.06-27.18,100.25-26.51,19.66.35,40.39,4.19,61.63,11.42h0a283,283,0,0,1,35.14,14.77c3.81,1.9,7.81,5.68,6.56,10.09a8.83,8.83,0,0,1-3.52,4.45c-11.52,8.85-25.45,11.68-38.92,14.42-7.33,1.49-14.92,3-22.05,5.53-3,1.05-6.28,3.4-5.71,6.58a7.44,7.44,0,0,0,2.25,3.58,8.48,8.48,0,0,1,2.48,4c.85,4-3,6.89-6.62,8.14-23.88,8.33-48.82,6.51-72.95,4.74-17.62-1.29-35.84-2.62-53.49,0-2.2.32-4.44.7-6.71,1.08C106.7,278.05,99.47,279.27,92.38,279.27Zm120.73-90.22c-36,0-69.3,13.32-97.22,26.43-11.33,5.33-24.33,11.82-35.33,21.61A45.62,45.62,0,0,0,69.75,252c-2.14,4.92-3.87,12.1,0,18.31a12.74,12.74,0,0,0,6.11,4.93c11.87,5,25,2.76,37.77.62,2.28-.38,4.52-.76,6.73-1.09,17.76-2.66,36-1.32,53.71,0,24,1.76,48.87,3.58,72.55-4.68,3.2-1.12,6.68-3.62,6-7a7.66,7.66,0,0,0-2.24-3.49,8.29,8.29,0,0,1-2.49-4.07c-.69-3.8,3-6.53,6.36-7.7,7.2-2.52,14.82-4.07,22.18-5.57,13.36-2.71,27.18-5.52,38.52-14.23a8,8,0,0,0,3.16-3.93c1.08-3.83-2.58-7.2-6.05-8.93a285.51,285.51,0,0,0-35-14.72c-21.14-7.19-41.78-11-61.33-11.36Z" fill="#231f20"/><path d="M285.6,248.21a32.72,32.72,0,0,1-4.31-.28.5.5,0,0,1-.42-.56.48.48,0,0,1,.56-.43,33.1,33.1,0,0,0,22.21-5.12.5.5,0,0,1,.54.84A34.39,34.39,0,0,1,285.6,248.21Z" fill="#fff"/><path d="M313.8,244.22a.49.49,0,0,1-.41-.22.5.5,0,0,1,.13-.7l6.14-4.16a.51.51,0,0,1,.7.14.5.5,0,0,1-.14.69l-6.14,4.16A.47.47,0,0,1,313.8,244.22Z" fill="#fff"/><path d="M256.11,269.36a.5.5,0,0,1-.13-1c3-.8,5.38-4.25,5.41-7.85a.48.48,0,0,1,.51-.49.49.49,0,0,1,.49.5c0,4.1-2.68,7.88-6.15,8.81Z" fill="#fff"/><ellipse cx="158.97" cy="247.71" rx="66.46" ry="9.68" fill="#e6e7e8"/><path d="M182.92,22.92a2.91,2.91,0,0,1,.19.59l1.31,5.94-1.43.31c-1.43.32-2.84.66-4.24,1l-1.28-6.06a2.89,2.89,0,0,1,5.45-1.82Z" fill="#fff"/><path d="M178.75,31.3a.48.48,0,0,1-.26-.07.54.54,0,0,1-.23-.32L177,24.84a3.39,3.39,0,0,1,6.39-2.13h0a3.29,3.29,0,0,1,.23.69l1.3,5.94a.49.49,0,0,1-.07.39.45.45,0,0,1-.32.21l-1.31.28-.11,0c-1.42.31-2.84.66-4.21,1Zm1.55-9.55a2.67,2.67,0,0,0-.56.06A2.41,2.41,0,0,0,178,24.63l1.18,5.55c1.23-.32,2.48-.63,3.75-.91l.1,0,.84-.19-1.2-5.45a2.46,2.46,0,0,0-.16-.48h0A2.37,2.37,0,0,0,180.3,21.75Z" fill="#231f20"/><path d="M99.36,106.18c2.9,13.08,47.13,14.38,98.77,2.9s91.16-31.39,88.25-44.47S234.63,18.28,183,29.76,96.45,93.1,99.36,106.18Z" fill="#ed8936"/><path d="M135.25,117.41c-1.64,0-3.24,0-4.8-.07-18.9-.55-30.12-4.48-31.58-11-2.94-13.22,32.09-65.48,84-77C235.46,17.58,284,51.48,286.87,64.5c3,13.56-35.92,33.35-88.63,45.07C175.31,114.67,153.18,117.41,135.25,117.41Zm-35.4-11.34c1.33,6,12.49,9.74,30.63,10.27,18.62.54,42.61-2.2,67.54-7.75,51.3-11.4,90.71-31.08,87.87-43.87-1.39-6.26-14.16-17.8-33.14-26.29-13.2-5.91-39.8-14.82-69.66-8.19C131.7,41.67,97,93.09,99.85,106.07Z" fill="#231f20"/><path d="M286.38,64.61c2.84,12.77-34.75,32.05-84.6,43.64-1.2.29-2.42.56-3.64.84l-2.59.56c-50.53,10.86-93.34,9.39-96.2-3.47s35.52-32.44,86.1-44l2.15-.48,3.75-.82C241.38,50.31,283.54,51.85,286.38,64.61Z" fill="#231f20"/><path d="M135.29,117.42c-20.88,0-34.79-3.78-36.42-11.13-3-13.26,35-32.84,86.47-44.57l2.15-.49,3.76-.81c50.72-10.75,92.72-9,95.61,4.08s-34.42,32.49-85,44.24c-1.2.29-2.42.56-3.64.83-.86.2-1.73.38-2.59.57C172.91,115,151.9,117.42,135.29,117.42Zm115.25-63c-16.36,0-37,2.28-59.08,7l-3.75.82c-.73.15-1.44.32-2.14.48-50,11.42-88.5,30.88-85.73,43.38s45.66,13.83,95.61,3.09l2.58-.56q1.83-.41,3.63-.84c49.18-11.43,87-30.74,84.23-43h0C284.38,57.93,270.75,54.44,250.54,54.44Z" fill="#231f20"/><path d="M263.23,54.44c-10.71-1-24.52-.62-40.1,1.2a71.84,71.84,0,0,0-37.84-26.27C223.08,23,252.5,44.9,263.23,54.44Z" fill="#fff"/><path d="M223.13,56.14a.51.51,0,0,1-.41-.2,71.23,71.23,0,0,0-37.53-26.08.5.5,0,0,1-.39-.5.49.49,0,0,1,.41-.48c37.93-6.4,67.43,15.48,78.35,25.18a.51.51,0,0,1,.13.57.5.5,0,0,1-.51.3c-10.77-1-24.6-.6-40,1.21ZM187.61,29.52a72.85,72.85,0,0,1,35.75,25.59C238,53.41,251.21,53,261.75,53.8,250.36,44,222.8,24.57,187.61,29.52Z" fill="#231f20"/><path d="M176.45,31.45s-15.31,12.76-21.11,39c-15.2,4.92-28.22,10.4-37.87,15.88a85.09,85.09,0,0,1,12-22.55C139.58,50.34,156.68,36.29,176.45,31.45Z" fill="#fff"/><path d="M117.47,86.81a.52.52,0,0,1-.32-.11.5.5,0,0,1-.15-.55,84.58,84.58,0,0,1,12-22.69c12.15-16.07,29.83-28.22,47.31-32.5a.5.5,0,0,1,.43.87c-.15.13-15.25,13-20.94,38.71a.53.53,0,0,1-.33.37c-15,4.85-28.07,10.33-37.79,15.84A.5.5,0,0,1,117.47,86.81Zm57.19-54.38C158,37.05,141.4,48.76,129.82,64.06a83.81,83.81,0,0,0-11.43,21.16C128,79.94,140.56,74.7,154.92,70a82.17,82.17,0,0,1,12.74-29.22A62.24,62.24,0,0,1,174.66,32.43Z" fill="#231f20"/><path d="M219.74,222.71l1.75-.47a16.69,16.69,0,0,1,5-.64l.32,0-25-113.38L191.35,60.91c-1.25.25-2.49.53-3.75.8l-2.15.5,10.11,47.44,24.09,113.09Z" fill="#fff"/><path d="M219.65,223.24a.45.45,0,0,1-.25-.07.51.51,0,0,1-.24-.32L185,62.31a.49.49,0,0,1,.37-.59l.36-.08,1.81-.42,1.38-.3,2.37-.5a.5.5,0,0,1,.59.38l35.41,160.73a.48.48,0,0,1-.11.44.52.52,0,0,1-.43.16l-.29,0a15.87,15.87,0,0,0-4.81.63l-1.46.38-.25.07-.1,0ZM186,62.58l34,159.53,1.34-.35a18.55,18.55,0,0,1,4.76-.68L191,61.5l-1.87.4-1.39.3Z" fill="#231f20"/><path d="M220.6,248.3a2,2,0,0,1-1.54-.73L138.71,150a2,2,0,0,1,3.09-2.54L222.15,245a2,2,0,0,1-1.55,3.27Z" fill="#231f20"/><path d="M139.1,245.87a2,2,0,0,1-1.15-.36,2,2,0,0,1-.48-2.79l35.69-50.84a2,2,0,1,1,3.28,2.3L140.74,245A2,2,0,0,1,139.1,245.87Z" fill="#231f20"/><path d="M143.42,140.75H92.91S92.7,177.7,110,197.53s39.92,19.84,46.4,20.06,28.92,0,28.92,0A46.63,46.63,0,0,1,155,191.9C144.93,170.32,143.42,140.75,143.42,140.75Z" fill="#ed8936"/><path d="M166.73,218.18c-4.29,0-8.23,0-10.38-.09l-.7,0c-7.23-.21-29.23-.86-46.06-20.2-17.19-19.75-17.18-56.74-17.18-57.11a.51.51,0,0,1,.5-.5h50.51a.5.5,0,0,1,.5.47c0,.3,1.62,29.73,11.56,51a46.54,46.54,0,0,0,29.91,25.41.5.5,0,0,1,.4.53.51.51,0,0,1-.49.46C185.15,218.09,175.24,218.18,166.73,218.18ZM93.42,141.25c.06,4.46,1.06,37.73,16.92,56,16.54,19,38.22,19.64,45.34,19.85l.71,0c4.88.16,19.08.07,25.58,0a48,48,0,0,1-27.39-25c-9.33-19.93-11.38-47-11.63-50.86Z" fill="#231f20"/><path d="M146.11,216.82s16.09-2.7,21.7-14.78H218.6s-8.63,11.37-12.95,13.82-20.36,1.73-20.36,1.73S152.21,216.82,146.11,216.82Z" fill="#ed8936"/><path d="M190.52,218.19c-2.86,0-5-.09-5.25-.11s-33.14-.76-39.16-.76a.5.5,0,0,1-.5-.46.49.49,0,0,1,.42-.53c.15,0,15.89-2.81,21.33-14.5a.48.48,0,0,1,.45-.29H218.6a.5.5,0,0,1,.45.28.49.49,0,0,1-.05.52c-.35.47-8.75,11.49-13.1,13.95C203.08,217.89,195.65,218.19,190.52,218.19Zm-40.59-1.83c10.58.15,35.09.72,35.37.73s16,.68,20.11-1.67c3.51-2,10.13-10.26,12.17-12.88H168.13C164.09,210.88,155.06,214.77,149.93,216.36Z" fill="#231f20"/><path d="M172.85,252.8a2,2,0,0,1-1.54-.72L91,154.55A2,2,0,0,1,94.05,152l80.35,97.53a2,2,0,0,1-.27,2.82A2.06,2.06,0,0,1,172.85,252.8Z" fill="#231f20"/><path d="M91.35,250.38A2,2,0,0,1,90.2,250a2,2,0,0,1-.48-2.78l35.69-50.84a2,2,0,0,1,3.28,2.29L93,249.53A2,2,0,0,1,91.35,250.38Z" fill="#231f20"/><path d="M288.72,201.09A21.94,21.94,0,0,1,266.78,223a22.31,22.31,0,0,1-4.58-.48c-.53-.12-1.05-.25-1.57-.4a22,22,0,0,1-14.2-12.84,21.38,21.38,0,0,1-1.12-3.67,21.92,21.92,0,0,1,4.93-19c.24-.28.49-.55.74-.8a21.8,21.8,0,0,1,12.56-6.48,18.63,18.63,0,0,1,2.38-.22c.29,0,.57,0,.86,0a21.94,21.94,0,0,1,18.47,10.09c.3.48.59,1,.86,1.47A21.75,21.75,0,0,1,288.72,201.09Z" fill="#fff"/><path d="M266.78,223.54a22.81,22.81,0,0,1-4.68-.49c-.55-.12-1.08-.25-1.61-.41A22.62,22.62,0,0,1,246,209.51a21.55,21.55,0,0,1-1.15-3.76,22.83,22.83,0,0,1-.49-4.66,22.48,22.48,0,0,1,5.53-14.75c.25-.29.5-.56.76-.82a22.52,22.52,0,0,1,12.85-6.63,21.48,21.48,0,0,1,2.44-.22l.87,0A22.39,22.39,0,0,1,285.67,189c.31.49.61,1,.88,1.5a22.44,22.44,0,0,1-4.89,27.41,20.77,20.77,0,0,1-2.94,2.22A22.39,22.39,0,0,1,266.78,223.54Zm0-43.89-.84,0a19.61,19.61,0,0,0-2.32.21,21.55,21.55,0,0,0-12.28,6.33q-.37.39-.72.78a21.44,21.44,0,0,0,10.15,34.69c.51.15,1,.28,1.53.39a21.63,21.63,0,0,0,4.48.47A21.45,21.45,0,0,0,285.67,191c-.26-.5-.55-1-.84-1.45A21.39,21.39,0,0,0,266.78,179.65Z" fill="#231f20"/><path d="M264.1,192.64h0c-.13.11-1.37,1.17-3.19,2.77a199.7,199.7,0,0,0-14.47,13.9,21.38,21.38,0,0,1-1.12-3.67,21.92,21.92,0,0,1,4.93-19c.24-.28.49-.55.74-.8a28.9,28.9,0,0,1,10.71,4.75A23.46,23.46,0,0,1,264.1,192.64Z" fill="#ed8936"/><path d="M246.43,209.82h-.08a.49.49,0,0,1-.38-.3,21.55,21.55,0,0,1-1.15-3.76,22.83,22.83,0,0,1-.49-4.66,22.48,22.48,0,0,1,5.53-14.75c.25-.28.5-.56.76-.82a.49.49,0,0,1,.47-.14,29.62,29.62,0,0,1,10.9,4.84,25.94,25.94,0,0,1,2.46,2.05.5.5,0,0,1,.06.65.44.44,0,0,1-.13.14c-.24.2-1.43,1.22-3.15,2.74a198,198,0,0,0-14.43,13.86A.51.51,0,0,1,246.43,209.82Zm4.71-23.4-.52.57a21.43,21.43,0,0,0-4.82,18.56,19.14,19.14,0,0,0,.81,2.83c4.21-4.59,10.5-10.27,14-13.33,1.27-1.12,2.25-2,2.78-2.43a23.27,23.27,0,0,0-2-1.59A28.38,28.38,0,0,0,251.14,186.42Z" fill="#231f20"/><path d="M286.11,190.71c-2.59-.25-4.7,4-7.08,4.12a48.87,48.87,0,0,0-9,.86c-2.11.42-5.79-.81-5.79-.81l-.22-5.13-.44-10.36a18.63,18.63,0,0,1,2.38-.22c.29,0,.57,0,.86,0a21.94,21.94,0,0,1,18.47,10.09C285.55,189.72,285.84,190.21,286.11,190.71Z" fill="#ed8936"/><path d="M269,196.28a18.17,18.17,0,0,1-4.93-.93.5.5,0,0,1-.34-.45L263,179.41a.51.51,0,0,1,.42-.52,21.86,21.86,0,0,1,2.45-.22l.87,0A22.39,22.39,0,0,1,285.67,189c.31.49.61,1,.88,1.5a.51.51,0,0,1,0,.52.56.56,0,0,1-.47.22c-1.13-.12-2.3.95-3.43,2s-2.28,2.09-3.58,2.14a49.19,49.19,0,0,0-9,.85A5.62,5.62,0,0,1,269,196.28Zm-4.28-1.78c.92.29,3.59,1,5.2.7a50.12,50.12,0,0,1,9.13-.87c.93,0,1.91-.93,2.94-1.88a8,8,0,0,1,3.33-2.19l-.46-.76a21.44,21.44,0,0,0-18.89-9.83c-.63,0-1.26.07-1.88.15Z" fill="#231f20"/><path d="M288.72,201.09a22.06,22.06,0,0,1-10.27,18.59l-12.67-22.84-1.85-3.34h0l1-.2c.66-.14,14.05-4.27,20.35-4,.3.48.59,1,.86,1.47A21.75,21.75,0,0,1,288.72,201.09Z" fill="#fff"/><path d="M278.45,220.18l-.12,0a.49.49,0,0,1-.32-.24l-14.52-26.18a.51.51,0,0,1,.44-.75l.05,0,.82-.17c.08,0,.38-.1.86-.24,9.34-2.66,15.94-3.94,19.61-3.82a.48.48,0,0,1,.4.23c.31.49.61,1,.88,1.5a22.44,22.44,0,0,1-4.89,27.41,20.77,20.77,0,0,1-2.94,2.22A.5.5,0,0,1,278.45,220.18Zm-13.76-26.34L278.63,219a21.89,21.89,0,0,0,2.37-1.83A21.44,21.44,0,0,0,285.67,191c-.22-.42-.46-.82-.7-1.22-3.64,0-10,1.22-19,3.79l-.93.26Z" fill="#231f20"/><path d="M264.1,192.64h0c0,.07-.07.36-.17.84h0c-.15.77-.39,2-.66,3.65-1,6.22-2.5,17.55-1.07,25.41-.53-.12-1.05-.25-1.57-.4a22,22,0,0,1-14.2-12.84,21.38,21.38,0,0,1-1.12-3.67,19.66,19.66,0,0,1,6.59-6.7,76.38,76.38,0,0,1,8.51-4.85A20.1,20.1,0,0,1,264.1,192.64Z" fill="#fff"/><path d="M262.2,223.06h-.11c-.54-.12-1.07-.25-1.6-.41A22.62,22.62,0,0,1,246,209.51a21.55,21.55,0,0,1-1.15-3.76.48.48,0,0,1,.05-.35,20.48,20.48,0,0,1,6.76-6.87,75.67,75.67,0,0,1,8.56-4.88,21.3,21.3,0,0,1,3.82-1.5.47.47,0,0,1,.41.11.49.49,0,0,1,.18.38h0c0,.15-.08.45-.18.94,0,0,0,0,0,.06-.15.78-.39,2-.65,3.58-1,6.08-2.48,17.44-1.07,25.24a.51.51,0,0,1-.14.45A.52.52,0,0,1,262.2,223.06Zm-16.36-17.33a21.3,21.3,0,0,0,1,3.4,21.59,21.59,0,0,0,13.88,12.55l.81.22c-1.22-7.9.21-18.88,1.2-24.84.27-1.61.51-2.88.66-3.66v0a28.26,28.26,0,0,0-2.82,1.18,76.94,76.94,0,0,0-8.45,4.82A19.58,19.58,0,0,0,245.84,205.73Z" fill="#231f20"/><path d="M281.33,217.51A21.78,21.78,0,0,1,266.78,223a22.31,22.31,0,0,1-4.58-.48c-.53-.12-1.05-.25-1.57-.4a77.42,77.42,0,0,1-.27-13.47,57.11,57.11,0,0,1,2.23-11.78,41.5,41.5,0,0,1,1.5-4.26h0s.29.22.8.65,1.4,1.2,2.4,2.13a52.46,52.46,0,0,1,9.22,11A48.9,48.9,0,0,1,281.33,217.51Z" fill="#ed8936"/><path d="M266.78,223.54a22.81,22.81,0,0,1-4.68-.49c-.55-.12-1.08-.25-1.61-.41a.49.49,0,0,1-.36-.43,79.35,79.35,0,0,1-.27-13.56,57.62,57.62,0,0,1,2.25-11.88c.64-2.13,1.22-3.59,1.5-4.28a.86.86,0,0,1,.13-.2.52.52,0,0,1,.67,0l.81.67c.39.33,1.24,1.05,2.42,2.15A52.43,52.43,0,0,1,277,206.19a49.43,49.43,0,0,1,4.86,11.18.51.51,0,0,1-.14.51,21.46,21.46,0,0,1-2.95,2.22A22.39,22.39,0,0,1,266.78,223.54Zm-5.68-1.77,1.2.3a21.63,21.63,0,0,0,4.48.47,21.4,21.4,0,0,0,11.41-3.29,20.84,20.84,0,0,0,2.57-1.9,48.91,48.91,0,0,0-4.67-10.66,52.05,52.05,0,0,0-9.13-10.9c-1.16-1.08-2-1.79-2.38-2.11l-.27-.23c-.32.8-.76,2-1.24,3.61a56.1,56.1,0,0,0-2.21,11.67A77,77,0,0,0,261.1,221.77Z" fill="#231f20"/><path d="M265.92,179.17a99.64,99.64,0,0,1-1.3,10.61c-.29,1.72-.52,2.86-.52,2.86a29.52,29.52,0,0,0-2.71-1.74,40.11,40.11,0,0,0-11.15-4.23c.24-.28.49-.55.74-.8a21.8,21.8,0,0,1,12.56-6.48A18.63,18.63,0,0,1,265.92,179.17Z" fill="#fff"/><path d="M264.1,193.14a.53.53,0,0,1-.29-.1,28,28,0,0,0-2.66-1.7,39.62,39.62,0,0,0-11-4.19.48.48,0,0,1-.36-.33.49.49,0,0,1,.09-.48c.25-.28.5-.56.76-.82a22.52,22.52,0,0,1,12.85-6.63,21.48,21.48,0,0,1,2.44-.22.52.52,0,0,1,.37.14.49.49,0,0,1,.14.38,100.89,100.89,0,0,1-1.31,10.68c-.29,1.72-.52,2.86-.52,2.86a.48.48,0,0,1-.3.37A.58.58,0,0,1,264.1,193.14Zm-12.92-6.77a40.09,40.09,0,0,1,10.46,4.1c.73.41,1.43.85,2.12,1.31.09-.49.22-1.21.36-2.08.48-2.84,1.08-6.81,1.27-10-.6,0-1.19.1-1.77.19a21.55,21.55,0,0,0-12.28,6.33Z" fill="#231f20"/><circle cx="264.1" cy="193.49" r="3.75" fill="#fff"/><path d="M264.1,197.74a4.25,4.25,0,1,1,4.25-4.25A4.26,4.26,0,0,1,264.1,197.74Zm0-7.49a3.25,3.25,0,1,0,3.25,3.24A3.25,3.25,0,0,0,264.1,190.25Z" fill="#231f20"/><path d="M216.76,224.41a9.43,9.43,0,0,1,2.8-1.89c1.46-.56,5.72-2.6,9.8,0" fill="#fff"/><path d="M216.76,224.91a.5.5,0,0,1-.35-.85,9.76,9.76,0,0,1,3-2l.37-.15c1.77-.7,5.89-2.35,9.88.19a.5.5,0,1,1-.53.85c-3.56-2.27-7.22-.81-9-.11l-.38.15a9,9,0,0,0-2.62,1.78A.51.51,0,0,1,216.76,224.91Z" fill="#231f20"/><path d="M223.5,266.51c-.65,0-1.3,0-1.95-.05a.5.5,0,1,1,0-1,38.17,38.17,0,0,0,17.77-3.41.5.5,0,0,1,.66.25.49.49,0,0,1-.24.66A39.33,39.33,0,0,1,223.5,266.51Z" fill="#231f20"/><path d="M261.44,225c5.72-2.41,11.76-4.87,17.93-4.21a33.66,33.66,0,0,1,8.84,2.57" fill="#fff"/><path d="M261.44,225.48a.51.51,0,0,1-.46-.31.5.5,0,0,1,.27-.66c5.49-2.31,11.71-4.92,18.17-4.23a34.08,34.08,0,0,1,9,2.6.5.5,0,0,1-.38.93,33,33,0,0,0-8.71-2.54c-6.19-.67-12.29,1.9-17.68,4.17A.58.58,0,0,1,261.44,225.48Z" fill="#231f20"/><path d="M293.18,268.75h-.67a.5.5,0,0,1-.48-.52.52.52,0,0,1,.52-.48,17.93,17.93,0,0,0,11-3.32c1-.69,1.88-1.49,2.77-2.27a19,19,0,0,1,6.13-4.06,18.41,18.41,0,0,1,4.33-.72A25.46,25.46,0,0,0,320,257a11.88,11.88,0,0,0,8.71-8.46.5.5,0,0,1,1,.25,12.93,12.93,0,0,1-9.46,9.19,24.55,24.55,0,0,1-3.28.43,18.12,18.12,0,0,0-4.09.68A17.59,17.59,0,0,0,307,262.9a35.69,35.69,0,0,1-2.85,2.33A19,19,0,0,1,293.18,268.75Z" fill="#fff"/></g></svg>