<svg xmlns="http://www.w3.org/2000/svg" viewBox="0 0 400 300"><g id="_498_online_lesson_flatline" data-name="#498_online_lesson_flatline"><polygon points="61.75 238.18 61.75 249.9 308.21 249.9 340.16 209.22 340.16 195.17 61.75 238.18" fill="#fff"/><path d="M308.21,250.35H61.75a.45.45,0,0,1-.45-.45V238.18a.45.45,0,0,1,.38-.45l278.41-43a.46.46,0,0,1,.37.11.44.44,0,0,1,.16.34v14.05a.42.42,0,0,1-.1.28l-31.95,40.68A.46.46,0,0,1,308.21,250.35Zm-246-.91H308l31.72-40.38V195.71L62.21,238.57Z" fill="#231f20"/><path d="M114.12,129.62a11.17,11.17,0,0,1-9.61-4.9,19.26,19.26,0,0,1-2.52-7.65c-.95-6.09-1.83-12.07-.92-18.19a14,14,0,0,1,1.5-5,5.74,5.74,0,0,1,4.1-3,10.63,10.63,0,0,1,4.57-6.23,15.81,15.81,0,0,1,11.52-2.48,4.38,4.38,0,0,1-2.33-.65,1.61,1.61,0,0,1-.52-2.14c.49-.66,1.46-.63,2.27-.51A31.85,31.85,0,0,1,134,83.09c-.22-1.47,1.39-2.7,2.88-2.66a7.3,7.3,0,0,1,4,1.84,19,19,0,0,1,5.27,5.41c1.52,2.65,1.3,6.79.22,9.58a4.37,4.37,0,0,1-1.67,2.24c-.58.43-1.36.59-1.93,1-1.16.82-.85.33-1.35,1.79-1.08,3.15-1.66,6.14-3.34,9.1a56.92,56.92,0,0,1-5.7,8,30.47,30.47,0,0,1-11.8,9A17,17,0,0,1,114.12,129.62Z" fill="#fff"/><path d="M114.24,130.12h-.13a11.63,11.63,0,0,1-10-5.13,19.79,19.79,0,0,1-2.6-7.85c-.88-5.58-1.88-11.91-.92-18.33a14.6,14.6,0,0,1,1.55-5.2,6.36,6.36,0,0,1,4.13-3.19,11.22,11.22,0,0,1,4.7-6.2,16.61,16.61,0,0,1,8.68-2.81,2.47,2.47,0,0,1-.44-1,1.75,1.75,0,0,1,.31-1.31c.74-1,2.24-.78,2.74-.71a32.74,32.74,0,0,1,11.3,3.9,2.64,2.64,0,0,1,.62-1.13,3.56,3.56,0,0,1,2.73-1.19,7.7,7.7,0,0,1,4.28,1.95,19,19,0,0,1,5.41,5.55c1.62,2.84,1.35,7.18.24,10A4.75,4.75,0,0,1,145,99.9a5.41,5.41,0,0,1-1.11.59,4.39,4.39,0,0,0-.84.42l-.55.37c-.28.18-.28.18-.43.63l-.18.54c-.31.92-.59,1.82-.86,2.72a30.25,30.25,0,0,1-2.51,6.47,58.33,58.33,0,0,1-5.76,8.07,30.76,30.76,0,0,1-12,9.09A17.5,17.5,0,0,1,114.24,130.12Zm5.85-47.71a15.49,15.49,0,0,0-8.57,2.64A10,10,0,0,0,107.16,91a.51.51,0,0,1-.43.4A5.22,5.22,0,0,0,103,94.1,13.86,13.86,0,0,0,101.57,99c-.93,6.26.05,12.51.92,18a19,19,0,0,0,2.44,7.46,10.71,10.71,0,0,0,9.19,4.67h0a16.57,16.57,0,0,0,6.27-1.25,29.71,29.71,0,0,0,11.6-8.79,57.88,57.88,0,0,0,5.66-7.93,30.22,30.22,0,0,0,2.43-6.27c.27-.91.55-1.82.87-2.76l.17-.52c.23-.7.29-.81.84-1.16l.52-.35a5.37,5.37,0,0,1,1-.52,4.85,4.85,0,0,0,.91-.47,3.81,3.81,0,0,0,1.5-2c1-2.61,1.28-6.59-.18-9.15a18.21,18.21,0,0,0-5.14-5.26,6.91,6.91,0,0,0-3.71-1.74,2.57,2.57,0,0,0-2,.85,1.55,1.55,0,0,0-.42,1.24.49.49,0,0,1-.75.5,31.6,31.6,0,0,0-11.64-4.18c-.94-.14-1.53,0-1.79.32a.76.76,0,0,0-.12.56,1.4,1.4,0,0,0,.54.88,2.35,2.35,0,0,0,.85.38c.42,0,.85.1,1.27.18a.5.5,0,0,1-.13,1,9.45,9.45,0,0,1-1.3-.18C121,82.43,120.54,82.41,120.09,82.41Z" fill="#231f20"/><path d="M144.22,111.59s5.83,8.57,4.67,10.38-5.1.67-5.1.67" fill="#fff"/><path d="M146.27,123.49a10.34,10.34,0,0,1-2.62-.37.51.51,0,0,1-.34-.62.49.49,0,0,1,.62-.34c1,.28,3.76.76,4.54-.46.61-1-1.95-5.84-4.66-9.83a.5.5,0,0,1,.83-.56c1.41,2.07,5.92,9,4.67,10.93A3.45,3.45,0,0,1,146.27,123.49Z" fill="#231f20"/><path d="M142.86,100.18c3.67,2.92,2.7,9.21,2.72,13.29q0,8.63-.3,17.23c-.15,3.64-9.57,3.84-11.25,2.77l1.77,9.6-21.68-2.34V129.62s8.74-1.06,12.33-8.53,3.45-21.4,3.45-21.4S139.27,97.33,142.86,100.18Z" fill="#fff"/><path d="M135.8,143.57h-.05l-21.69-2.35a.49.49,0,0,1-.44-.49V129.62a.49.49,0,0,1,.44-.5c.08,0,8.51-1.12,11.94-8.24s3.4-21,3.4-21.18a.49.49,0,0,1,.38-.49c.39-.1,9.65-2.39,13.39.58h0c3.25,2.58,3.09,7.51,3,11.47,0,.78,0,1.53,0,2.21,0,5.73-.07,11.53-.3,17.25a3.11,3.11,0,0,1-2,2.6c-2.47,1.3-7,1.45-9.13.92L136.3,143a.53.53,0,0,1-.13.43A.51.51,0,0,1,135.8,143.57Zm-21.18-3.29,20.57,2.22-1.65-8.94a.48.48,0,0,1,.21-.5.52.52,0,0,1,.55,0c1.08.69,6.37.79,9-.62.92-.48,1.4-1.07,1.43-1.75.23-5.7.33-11.49.3-17.2,0-.7,0-1.46,0-2.26.12-3.73.27-8.38-2.59-10.65h0c-3-2.35-10.38-.87-12.14-.48,0,2.38-.21,14.36-3.5,21.22s-10.42,8.41-12.28,8.74Z" fill="#231f20"/><path d="M133.26,115.41a7.76,7.76,0,0,0-1.66-3.92,11.19,11.19,0,0,0-2.11-2.58,3.8,3.8,0,0,0-3.11-.9,3.53,3.53,0,0,0-2.23,1.81,6.83,6.83,0,0,0-.68,2.86,12.33,12.33,0,0,0,5.83,10.85l-.32-.34" fill="#fff"/><path d="M129.3,124A.48.48,0,0,1,129,124a12.9,12.9,0,0,1-6.07-11.3,7.15,7.15,0,0,1,.74-3.07,4,4,0,0,1,2.56-2.07,4.2,4.2,0,0,1,3.53,1,11.4,11.4,0,0,1,2.22,2.69,8.21,8.21,0,0,1,1.74,4.18.5.5,0,0,1-.48.51.52.52,0,0,1-.52-.48,7.53,7.53,0,0,0-1.57-3.66,10.75,10.75,0,0,0-2-2.47,3.25,3.25,0,0,0-2.68-.8,3,3,0,0,0-1.9,1.56,6.15,6.15,0,0,0-.62,2.64,11.94,11.94,0,0,0,5,10,.49.49,0,0,1,.41.15l.32.34a.49.49,0,0,1,0,.65A.48.48,0,0,1,129.3,124Z" fill="#231f20"/><ellipse cx="142.48" cy="107.14" rx="0.81" ry="2.05" transform="translate(-6.88 9.82) rotate(-3.85)" fill="#231f20"/><path d="M109.39,145l1.53-7.86,27.86,1.7,1.75,5.67S125.23,152.43,109.39,145Z" fill="#fff"/><path d="M123.85,148.67a34.53,34.53,0,0,1-14.67-3.18.5.5,0,0,1-.28-.55l1.53-7.87a.48.48,0,0,1,.52-.4l27.86,1.7a.49.49,0,0,1,.45.35L141,144.4a.49.49,0,0,1-.25.59A41,41,0,0,1,123.85,148.67ZM110,144.74c14,6.31,27.56.65,30-.46l-1.51-4.94-27.08-1.65Z" fill="#231f20"/><path d="M145.43,126.16s-1.56,3-6.44,0" fill="#fff"/><path d="M142.83,128a8.08,8.08,0,0,1-4.1-1.41.51.51,0,0,1,.53-.86c1.72,1.07,3.23,1.47,4.36,1.17a2.27,2.27,0,0,0,1.37-1,.5.5,0,0,1,.89.46,3.29,3.29,0,0,1-2,1.46A3.93,3.93,0,0,1,142.83,128Z" fill="#231f20"/><polygon points="311.59 230.15 57.83 230.15 91.79 192.89 342.17 190.77 311.59 230.15" fill="#fff"/><path d="M311.59,230.6H57.83a.43.43,0,0,1-.41-.27.44.44,0,0,1,.08-.49l34-37.25a.43.43,0,0,1,.33-.15l250.38-2.13h0a.47.47,0,0,1,.41.25.5.5,0,0,1-.05.49L312,230.43A.46.46,0,0,1,311.59,230.6Zm-252.72-.91H311.36l29.87-38.46L92,193.35Z" fill="#231f20"/><polygon points="237.54 222.91 256.97 196.74 166.63 196.74 139.56 224.17 237.54 222.91" fill="#fff"/><path d="M139.56,224.67a.49.49,0,0,1-.46-.3.51.51,0,0,1,.1-.55l27.08-27.43a.47.47,0,0,1,.35-.15H257a.5.5,0,0,1,.4.8L237.94,223.2a.51.51,0,0,1-.39.21l-98,1.26Zm27.28-27.43-26.07,26.42,96.52-1.25L256,197.24Zm70.7,25.67h0Z" fill="#231f20"/><polygon points="249.18 200.87 235.7 218.77 148.64 218.77 169 201.62 249.18 200.87" fill="#fff"/><path d="M235.7,219.27H148.64a.5.5,0,0,1-.32-.89l20.35-17.15a.54.54,0,0,1,.32-.11l80.18-.75a.48.48,0,0,1,.45.27.51.51,0,0,1,0,.53l-13.48,17.9A.51.51,0,0,1,235.7,219.27Zm-85.69-1h85.44l12.72-16.89-79,.73Z" fill="#d1d3d4"/><rect x="57.83" y="230.15" width="253.75" height="8.03" fill="#fff"/><path d="M311.59,238.64H57.83a.46.46,0,0,1-.45-.46v-8a.46.46,0,0,1,.45-.46H311.59a.46.46,0,0,1,.45.46v8A.46.46,0,0,1,311.59,238.64Zm-253.3-.92H311.13V230.6H58.29Z" fill="#231f20"/><path d="M213.18,214.34c3.47.87,8-2.58,9.83-5.12a2.76,2.76,0,0,1,1.05-1,2.38,2.38,0,0,1,.92-.12,31.31,31.31,0,0,0,5.87-.65c1.88-.4,4-1.18,4.64-3s-.38-3.81-1.84-5c-3.32-2.8-8.11-2.65-12.38-3.43a15.7,15.7,0,0,0-5.35-.52,6.59,6.59,0,0,0-4.09,2.8,18.63,18.63,0,0,1-3.54,3.12q-2.85,2.24-5.62,4.54c3,2.53,6,6,9.38,8A4.4,4.4,0,0,0,213.18,214.34Z" fill="#fff"/><path d="M214.34,215a5.07,5.07,0,0,1-1.29-.16h0a4.7,4.7,0,0,1-1.25-.51,38.54,38.54,0,0,1-6.38-5.23c-1.06-1-2-1.94-3.07-2.79a.5.5,0,0,1,0-.77c1.87-1.55,3.76-3.08,5.63-4.54l.73-.56a14.23,14.23,0,0,0,2.72-2.47,7.07,7.07,0,0,1,4.41-3,12.47,12.47,0,0,1,4.56.34l1,.18c1,.18,2.07.32,3.1.45,3.38.42,6.87.86,9.51,3.09,1.56,1.3,2.78,3.54,2,5.6-.63,1.63-2.26,2.7-5,3.28a31.35,31.35,0,0,1-6,.66,2.07,2.07,0,0,0-.74.08,2.15,2.15,0,0,0-.76.77l-.08.11C221.67,211.91,217.81,215,214.34,215Zm-1-1.13c3.12.79,7.48-2.42,9.31-4.92l.07-.1a2.91,2.91,0,0,1,1.19-1.11,2.86,2.86,0,0,1,1.09-.16,30.37,30.37,0,0,0,5.79-.64c2.38-.5,3.78-1.37,4.27-2.66.62-1.59-.41-3.4-1.69-4.48-2.42-2-5.76-2.45-9-2.86-1-.13-2.12-.27-3.15-.46l-1-.18A11.46,11.46,0,0,0,216,196a6.07,6.07,0,0,0-3.79,2.61,14.94,14.94,0,0,1-2.91,2.66l-.71.55c-1.71,1.33-3.44,2.73-5.15,4.14.89.77,1.78,1.62,2.65,2.44a38,38,0,0,0,6.21,5.1,3.74,3.74,0,0,0,1,.4Z" fill="#231f20"/><path d="M74.94,243.48S70.88,157.62,92.8,146c6.82-3.62,61.84-6.09,74.83,4.84S181.7,206.2,181.7,206.2l24.16-5.72L215.53,218s-35.59,16.36-42.4,19.53C161.49,242.94,74.94,243.48,74.94,243.48Z" fill="#ed8936"/><path d="M148.64,206.41h0a.5.5,0,0,1-.45-.55l4.45-48.78a.5.5,0,0,1,1,.09L149.14,206A.5.5,0,0,1,148.64,206.41Z" fill="#231f20"/><path d="M134.71,160.37H84.79a25.55,25.55,0,0,0-25.33,28.92l8.06,60.61H169l-9-67.35A25.55,25.55,0,0,0,134.71,160.37Z" fill="#231f20"/><path d="M187.06,221.27c3.22,0,3.22-5,0-5s-3.22,5,0,5Z" fill="#ed8936"/><path d="M187.78,221.27c3.22,0,3.23-5,0-5s-3.22,5,0,5Z" fill="#ed8936"/><polygon points="311.59 238.18 342.17 197.86 342.17 190.77 311.59 230.15 311.59 238.18" fill="#fff"/><path d="M311.59,238.64l-.15,0a.44.44,0,0,1-.31-.43v-8a.42.42,0,0,1,.1-.28l30.58-39.38a.44.44,0,0,1,.5-.16.46.46,0,0,1,.31.44v7.09a.47.47,0,0,1-.09.28L312,238.46A.47.47,0,0,1,311.59,238.64Zm.45-8.34v6.52l29.67-39.11V192.1Z" fill="#231f20"/><path d="M308.21,250.35a.46.46,0,0,1-.46-.45V238.18a.47.47,0,0,1,.46-.46.46.46,0,0,1,.45.46V249.9A.45.45,0,0,1,308.21,250.35Z" fill="#231f20"/><path d="M180.85,63.85h160.5a0,0,0,0,1,0,0v85.87a3.55,3.55,0,0,1-3.55,3.55H184.4a3.55,3.55,0,0,1-3.55-3.55V63.85A0,0,0,0,1,180.85,63.85Z" fill="#fff"/><path d="M337.79,153.73H184.4a4,4,0,0,1-4-4V63.85a.46.46,0,0,1,.46-.46h160.5a.47.47,0,0,1,.46.46v85.87A4,4,0,0,1,337.79,153.73ZM181.3,64.31v85.41a3.1,3.1,0,0,0,3.1,3.09H337.79a3.1,3.1,0,0,0,3.1-3.09V64.31Z" fill="#231f20"/><path d="M184.4,50.1H337.79a3.55,3.55,0,0,1,3.55,3.55V64.09a0,0,0,0,1,0,0H180.85a0,0,0,0,1,0,0V53.66A3.55,3.55,0,0,1,184.4,50.1Z" fill="#fff"/><path d="M341.35,64.54H180.85a.45.45,0,0,1-.46-.45V53.66a4,4,0,0,1,4-4H337.79a4,4,0,0,1,4,4V64.09A.46.46,0,0,1,341.35,64.54Zm-160-.91H340.89v-10a3.1,3.1,0,0,0-3.1-3.1H184.4a3.1,3.1,0,0,0-3.1,3.1Z" fill="#231f20"/><rect x="188.55" y="75.09" width="76.35" height="50.01" fill="#fff"/><path d="M264.89,125.61H188.55a.5.5,0,0,1-.5-.5v-50a.5.5,0,0,1,.5-.5h76.34a.5.5,0,0,1,.5.5v50A.5.5,0,0,1,264.89,125.61Zm-75.84-1h75.34v-49H189.05Z" fill="#d1d3d4"/><circle cx="197.62" cy="93.37" r="2.77" fill="#fff"/><path d="M197.62,96.63a3.27,3.27,0,1,1,3.27-3.26A3.27,3.27,0,0,1,197.62,96.63Zm0-5.53a2.27,2.27,0,1,0,2.27,2.27A2.27,2.27,0,0,0,197.62,91.1Z" fill="#d1d3d4"/><path d="M256,93.87h-49.8a.51.51,0,0,1-.5-.5.5.5,0,0,1,.5-.5H256a.5.5,0,0,1,.5.5A.5.5,0,0,1,256,93.87Z" fill="#d1d3d4"/><circle cx="197.62" cy="103.17" r="2.77" fill="#fff"/><path d="M197.62,106.43a3.27,3.27,0,1,1,3.27-3.26A3.27,3.27,0,0,1,197.62,106.43Zm0-5.53a2.27,2.27,0,1,0,2.27,2.27A2.27,2.27,0,0,0,197.62,100.9Z" fill="#d1d3d4"/><path d="M244.11,103.67H206.23a.5.5,0,0,1,0-1h37.88a.5.5,0,0,1,0,1Z" fill="#d1d3d4"/><circle cx="197.62" cy="112.97" r="2.77" fill="#fff"/><path d="M197.62,116.24a3.27,3.27,0,1,1,3.27-3.27A3.28,3.28,0,0,1,197.62,116.24Zm0-5.54a2.27,2.27,0,1,0,2.27,2.27A2.27,2.27,0,0,0,197.62,110.7Z" fill="#d1d3d4"/><path d="M250.68,113.47H206.23a.5.5,0,0,1,0-1h44.45a.5.5,0,0,1,0,1Z" fill="#d1d3d4"/><rect x="194.85" y="82.17" width="26.33" height="4.08" fill="#d1d3d4"/><path d="M244.73,122.48c-1-1.25-2.16-2.85-3.19-4.08-.44-6-1.79-9.39-2.56-9.82-1.1-.61-2.36.35-3.52.83a1.12,1.12,0,0,1-.67.1,1.26,1.26,0,0,1-.46-.3c-2.68-2.37-5.06-6.84-6.82-7.33-1.18-.33-2.77,2.06-.3,4.78,1.38,1.52,4.15,4.33,4.2,4.51s-1.21,3.94-1.39,5.42c-.33,2.71,7.67,11.42,9.32,13.47Z" fill="#fff"/><path d="M239.34,130.56a.5.5,0,0,1-.39-.18c-.28-.35-.73-.88-1.3-1.54-4.08-4.76-8.41-10-8.12-12.31a27.42,27.42,0,0,1,.93-3.67c.18-.59.37-1.25.44-1.55-.28-.32-1.08-1.16-1.8-1.91s-1.66-1.74-2.26-2.4c-1.73-1.9-1.67-3.68-1-4.72a1.67,1.67,0,0,1,1.83-.88c1.15.31,2.36,1.88,3.77,3.7a28.06,28.06,0,0,0,3.25,3.74,1,1,0,0,0,.26.19.79.79,0,0,0,.35-.09c.24-.1.49-.22.75-.35,1-.49,2.11-1,3.2-.45s2.37,4.23,2.8,10.06c.54.65,1.11,1.39,1.67,2.13s1,1.27,1.43,1.83a.5.5,0,0,1,0,.61l-5.39,7.58a.47.47,0,0,1-.39.21Zm-12.05-28.21a.85.85,0,0,0-.63.45c-.42.7-.44,2,.92,3.53.6.66,1.46,1.56,2.25,2.38,2,2.1,2,2.14,2.06,2.32s0,.43-.47,2.11a29.41,29.41,0,0,0-.9,3.51c-.25,2,5.45,8.7,7.89,11.54l.9,1.05,4.79-6.74c-.39-.49-.8-1-1.2-1.56-.59-.77-1.19-1.55-1.75-2.22a.44.44,0,0,1-.11-.29c-.44-6-1.81-9.14-2.31-9.41s-1.42,0-2.27.47c-.27.13-.54.27-.81.38a1.5,1.5,0,0,1-1,.12,1.64,1.64,0,0,1-.68-.41,28.69,28.69,0,0,1-3.37-3.87c-1.19-1.53-2.41-3.12-3.25-3.35Z" fill="#231f20"/><path d="M244,119.41s17.39,15.57,19.18,15.31c3-3.87,13.67-19.9,13.67-19.9,2.71-3.57,10.52-6.33,21.69-4.8,0,0,24.78.51,29.58,8.39,2.76,4.54,5.11,16.63,6.64,34.5H252.09c-6.74-10.19-18.19-23.78-18.19-23.78Z" fill="#ed8936"/><polygon points="294.62 113.72 295.17 147.54 310.05 111.87 294.62 113.72" fill="#231f20"/><path d="M295.17,148h-.1a.5.5,0,0,1-.4-.49l-.55-33.82a.49.49,0,0,1,.44-.5L310,111.38a.47.47,0,0,1,.45.19.5.5,0,0,1,.07.5l-14.88,35.67A.5.5,0,0,1,295.17,148Zm-.05-33.87.51,31,13.62-32.67Z" fill="#231f20"/><path d="M286.57,76.72l.07-.13c1.54-2.56,5-5.13,7.79-6.34,6.56-2.88,14.83-1.26,20.15,3.42a12,12,0,0,1,4,6.48c.62,2.4,2.09,4.85,2.55,7.3.34,1.82-.32,3.68-.26,5.54.13,4,3.5,7.09,6.92,9.14-5,4.57-12.12,6-18.89,6.4a85.11,85.11,0,0,1-34.84-5.2,14.4,14.4,0,0,0,5.52-11.26c0-1.33-.16-2.77.59-3.86s1.86-1.37,2.76-2.11C285.81,83.76,284.91,79.65,286.57,76.72Z" fill="#fff"/><path d="M303.87,109.18a86.12,86.12,0,0,1-29.95-5.38.51.51,0,0,1-.32-.4.52.52,0,0,1,.19-.47,13.93,13.93,0,0,0,5.33-10.86V91.5a5.92,5.92,0,0,1,.69-3.58,5.61,5.61,0,0,1,1.83-1.51,10.08,10.08,0,0,0,1-.69c1.55-1.28,1.89-3.15,2.25-5.14a13.19,13.19,0,0,1,1.23-4.11h0l.43.25-.41-.28,0-.11c1.61-2.68,5.25-5.31,8-6.54,6.55-2.88,15.06-1.44,20.68,3.51a12.59,12.59,0,0,1,4.2,6.72,24.15,24.15,0,0,0,1.16,3.22,21.49,21.49,0,0,1,1.39,4.12,10.8,10.8,0,0,1-.08,3.36,13.42,13.42,0,0,0-.17,2.25c.12,4,3.7,7,6.68,8.73a.47.47,0,0,1,.24.38.49.49,0,0,1-.16.42c-4.29,3.92-10.39,6-19.2,6.53C307.28,109.13,305.57,109.18,303.87,109.18Zm-28.78-6A85,85,0,0,0,308.91,108c8.23-.5,14-2.36,18.09-5.83-3.06-1.94-6.46-5-6.59-9.2a14.79,14.79,0,0,1,.18-2.41,9.83,9.83,0,0,0,.09-3,21.59,21.59,0,0,0-1.33-3.92,24.89,24.89,0,0,1-1.21-3.35,11.53,11.53,0,0,0-3.89-6.22c-5.34-4.7-13.41-6.07-19.62-3.34-2.62,1.16-6.06,3.64-7.56,6.14l-.05.09-.45-.22L287,77a12.14,12.14,0,0,0-1.12,3.79c-.37,2.07-.77,4.22-2.6,5.73a9.39,9.39,0,0,1-1.13.77,5,5,0,0,0-1.53,1.23,5.08,5.08,0,0,0-.51,3v.59A15,15,0,0,1,275.09,103.16Z" fill="#231f20"/><path d="M291.18,92.57a6,6,0,0,0-1.19-2.2,2,2,0,0,0-2.28-.54,1.92,1.92,0,0,0-1,1.55,4.24,4.24,0,0,0,.31,1.86,7.31,7.31,0,0,0,1.81,3,4.29,4.29,0,0,0,3.18,1.25" fill="#fff"/><path d="M291.81,98a4.88,4.88,0,0,1-3.29-1.39,8,8,0,0,1-1.94-3.18,5,5,0,0,1-.33-2.08,2.46,2.46,0,0,1,1.23-2,2.55,2.55,0,0,1,2.87.64,6.38,6.38,0,0,1,1.3,2.37.5.5,0,0,1-.29.65.52.52,0,0,1-.65-.3,5.59,5.59,0,0,0-1.07-2,1.58,1.58,0,0,0-1.71-.44,1.48,1.48,0,0,0-.69,1.15,4,4,0,0,0,.29,1.65,6.87,6.87,0,0,0,1.68,2.78A3.79,3.79,0,0,0,292,97a.51.51,0,0,1,.53.46.5.5,0,0,1-.46.54Z" fill="#231f20"/><path d="M295.61,103.77l-1,10s.48,5.67,6.7,4.54a12.6,12.6,0,0,0,8.73-6.39L311,94.56c0-.74-2.65-3.78-1.93-10.1a15.47,15.47,0,0,1-10.83-6.16s-2.89,3.57-4.1,4.67a15.05,15.05,0,0,0-2.56,2.79c-1.92,2.9-2.12,6.9-1.66,10.21C290.29,98.73,292.15,103.83,295.61,103.77Z" fill="#fff"/><path d="M299.77,118.91a5.52,5.52,0,0,1-3.46-1.08,6.2,6.2,0,0,1-2.19-4.06l.95-9.53c-3.33-.42-5.23-5.15-5.66-8.2-.35-2.44-.58-7.06,1.74-10.56a15.2,15.2,0,0,1,2.64-2.88c1.17-1.07,4-4.58,4-4.61a.57.57,0,0,1,.42-.19.52.52,0,0,1,.39.23A15.12,15.12,0,0,0,309.1,84a.53.53,0,0,1,.34.19.54.54,0,0,1,.11.37,14.79,14.79,0,0,0,1.51,8.85,3,3,0,0,1,.42,1.21h0l-.94,17.32a.43.43,0,0,1,0,.19,13,13,0,0,1-9.09,6.66A8.66,8.66,0,0,1,299.77,118.91Zm-4.65-5.14a4.67,4.67,0,0,0,6.12,4,12.16,12.16,0,0,0,8.31-6c.08-1.44.92-17.09.93-17.21a6.62,6.62,0,0,0-.32-.72,15.84,15.84,0,0,1-1.66-8.91,16,16,0,0,1-10.3-5.78c-.85,1-2.78,3.34-3.74,4.22A14.46,14.46,0,0,0,292,86c-2.13,3.23-1.91,7.57-1.58,9.87s2,7.37,5.15,7.37h.07a.46.46,0,0,1,.36.16.46.46,0,0,1,.13.39l-1,10Z" fill="#231f20"/><path d="M299.77,86.66s-3.65,4.49-3,5.39,2.87.55,2.87.55" fill="#fff"/><path d="M298.74,93.17a2.91,2.91,0,0,1-2.33-.82c-.77-1,1.2-3.82,3-6a.5.5,0,0,1,.7-.08.51.51,0,0,1,.07.71c-1.69,2.08-3.06,4.32-2.94,4.81.36.46,1.76.42,2.37.32a.5.5,0,1,1,.16,1A8.11,8.11,0,0,1,298.74,93.17Z" fill="#231f20"/><ellipse cx="295.17" cy="87.78" rx="1.04" ry="0.55" transform="translate(169.04 368.71) rotate(-82.38)" fill="#231f20"/><ellipse cx="304.33" cy="87.55" rx="1.04" ry="0.55" transform="translate(213.23 390.84) rotate(-89.33)" fill="#231f20"/><path d="M308.1,90.75a7,7,0,0,1,1.12-2.37,3.17,3.17,0,0,1,2.58-1.32,2.08,2.08,0,0,1,1.58.85,2.76,2.76,0,0,1,.4,1.19c.33,2.22-.41,5.1-2.49,6.24a2.19,2.19,0,0,1-2.35,0" fill="#fff"/><path d="M310,96.2a2.16,2.16,0,0,1-1.34-.43.5.5,0,1,1,.61-.79,1.72,1.72,0,0,0,1.8-.08c1.88-1,2.55-3.66,2.25-5.73a2.44,2.44,0,0,0-.32-1,1.57,1.57,0,0,0-1.19-.63,2.67,2.67,0,0,0-2.17,1.13,6.72,6.72,0,0,0-1,2.2.51.51,0,0,1-.62.34.5.5,0,0,1-.34-.63,7.46,7.46,0,0,1,1.21-2.53,3.65,3.65,0,0,1,3-1.5,2.53,2.53,0,0,1,2,1.06,3.35,3.35,0,0,1,.48,1.39c.35,2.42-.48,5.51-2.75,6.76A3.29,3.29,0,0,1,310,96.2Z" fill="#231f20"/><path d="M276.81,150.16h0a.5.5,0,0,1-.49-.49c0-.74,3.77-20.86,4.52-24.89a.5.5,0,1,1,1,.19c-1.78,9.53-4.46,24-4.5,24.71A.5.5,0,0,1,276.81,150.16Z" fill="#231f20"/><path d="M316.92,151.74a.5.5,0,0,1-.5-.5V123.9a.5.5,0,0,1,.5-.5.5.5,0,0,1,.5.5v27.34A.5.5,0,0,1,316.92,151.74Z" fill="#231f20"/><path d="M303.3,93.89l-8.13.77s0,5.8,3.44,5.42S303,97.47,303.3,93.89Z" fill="#fff"/><path d="M298.29,100.6a2.74,2.74,0,0,1-1.87-.71c-1.72-1.53-1.75-5.08-1.75-5.23a.49.49,0,0,1,.45-.5l8.13-.76a.5.5,0,0,1,.4.14.51.51,0,0,1,.15.39c-.23,3.18-1,6.19-5.13,6.65Zm-2.6-5.49c.06.94.32,3.08,1.4,4a1.78,1.78,0,0,0,1.46.44c2.68-.29,3.85-1.7,4.2-5.13Z" fill="#231f20"/><path d="M295.61,103.77a23.78,23.78,0,0,0,9.51-1.77s-5.61,6.77-9.95,9.28Z" fill="#231f20"/><path d="M295.17,111.78a.5.5,0,0,1-.5-.53l.45-7.51a.46.46,0,0,1,.52-.47,23.66,23.66,0,0,0,9.28-1.73.49.49,0,0,1,.58.77c-.23.28-5.71,6.88-10.08,9.4A.59.59,0,0,1,295.17,111.78Zm.92-7.5-.37,6.06a48.09,48.09,0,0,0,7.73-7.18A26,26,0,0,1,296.09,104.28Z" fill="#231f20"/><path d="M291.27,134a.48.48,0,0,1-.36-.16L284.4,127a.5.5,0,0,1,.08-.75l5.93-4.06-5.94-4.41a.5.5,0,0,1,0-.81l7.29-5a.5.5,0,1,1,.57.82l-6.72,4.63,5.95,4.42a.46.46,0,0,1,.2.41.47.47,0,0,1-.22.4l-6,4.12,6.1,6.41a.5.5,0,0,1,0,.71A.52.52,0,0,1,291.27,134Z" fill="#231f20"/><path d="M303.71,134.46a.51.51,0,0,1-.43-.25.49.49,0,0,1,.18-.68l9.43-5.63L307.73,122a.49.49,0,0,1-.12-.43.51.51,0,0,1,.28-.36l6.45-3-3.73-4a.5.5,0,0,1,0-.71.51.51,0,0,1,.71,0l4.19,4.55a.5.5,0,0,1,.12.44.47.47,0,0,1-.28.35l-6.46,3,5.12,5.81a.5.5,0,0,1,.12.41.49.49,0,0,1-.24.35L304,134.39A.59.59,0,0,1,303.71,134.46Z" fill="#231f20"/><path d="M237.31,118.47a.52.52,0,0,1-.33-.12,4.3,4.3,0,0,1-1.51-2.79,3.26,3.26,0,0,1-3.05,1,1.31,1.31,0,0,1-1.07-.89c-.58-1.83,3-5.83,3.74-6.61a.5.5,0,0,1,.71,0,.5.5,0,0,1,0,.71c-1.9,2-3.78,4.78-3.51,5.63,0,.05.05.16.32.21,1.44.32,2.49-1,3.06-2a4.85,4.85,0,0,1,.55-1.14.5.5,0,0,1,.64-.16.5.5,0,0,1,.25.61,7.68,7.68,0,0,1-.51,1.08,3.27,3.27,0,0,0,1,3.61.51.51,0,0,1,0,.71A.51.51,0,0,1,237.31,118.47Z" fill="#231f20"/><circle cx="195.17" cy="57.1" r="1.97" fill="#d1d3d4"/><circle cx="204.46" cy="57.1" r="1.97" fill="#d1d3d4"/><circle cx="213.75" cy="57.1" r="1.97" fill="#d1d3d4"/></g></svg>