<svg xmlns="http://www.w3.org/2000/svg" viewBox="0 0 400 300"><g id="_447_reading_a_book_flatline" data-name="#447_reading_a_book_flatline"><polygon points="307.14 44.08 307.14 224.39 331.18 249.41 331.18 44.08 307.14 44.08" fill="#fff"/><path d="M331.18,249.91a.51.51,0,0,1-.36-.15l-24-25a.52.52,0,0,1-.14-.35V44.08a.49.49,0,0,1,.49-.5h24a.5.5,0,0,1,.5.5V249.42a.5.5,0,0,1-.31.46A.58.58,0,0,1,331.18,249.91Zm-23.54-25.72,23.05,24V44.58H307.64Z" fill="#231f20"/><rect x="92.86" y="44.08" width="214.29" height="180.31" fill="#fff"/><path d="M307.14,224.89H92.86a.5.5,0,0,1-.5-.5V44.08a.5.5,0,0,1,.5-.5H307.14a.5.5,0,0,1,.5.5V224.39A.5.5,0,0,1,307.14,224.89Zm-213.79-1h213.3V44.58H93.35Z" fill="#231f20"/><path d="M195,219.5h-90.1a.51.51,0,0,1-.5-.5V53.12a.5.5,0,0,1,.5-.5H195a.5.5,0,0,1,.5.5V219A.51.51,0,0,1,195,219.5Zm-89.6-1h89.1V53.62h-89.1Z" fill="#d1d3d4"/><path d="M295.13,219.5H205a.51.51,0,0,1-.5-.5V53.12a.5.5,0,0,1,.5-.5h90.1a.5.5,0,0,1,.5.5V219A.51.51,0,0,1,295.13,219.5Zm-89.6-1h89.1V53.62h-89.1Z" fill="#d1d3d4"/><polygon points="331.18 249.41 68.82 249.41 92.86 224.39 307.14 224.39 331.18 249.41" fill="#fff"/><path d="M331.18,249.91H68.82a.51.51,0,0,1-.46-.3.49.49,0,0,1,.1-.54l24-25a.48.48,0,0,1,.36-.16H307.14a.48.48,0,0,1,.36.16l24,25a.49.49,0,0,1,.1.54A.51.51,0,0,1,331.18,249.91ZM70,248.92H330l-23.08-24H93.07Z" fill="#231f20"/><polygon points="68.82 44.08 68.82 249.41 92.86 224.39 92.86 44.08 68.82 44.08" fill="#fff"/><path d="M68.82,249.91a.58.58,0,0,1-.19,0,.5.5,0,0,1-.31-.46V44.08a.5.5,0,0,1,.5-.5h24a.49.49,0,0,1,.49.5V224.39a.52.52,0,0,1-.14.35l-24,25A.51.51,0,0,1,68.82,249.91Zm.49-205.33v203.6l23-24V44.58Z" fill="#231f20"/><path d="M93.31,174.29c-2.11.38-17.18.13-16.88,3.13s7.64,33,9.72,41.05,7.73,15,13.08,18,21.6-10.06,25.22-11S93.31,174.29,93.31,174.29Z" fill="#231f20"/><path d="M101.17,237.4a4.4,4.4,0,0,1-2.19-.5c-5-2.82-11-9.57-13.32-18.31-2.11-8.15-9.43-38.06-9.73-41.12a1.42,1.42,0,0,1,.36-1.08c1.47-1.7,7.6-2.11,13.74-2.38,1.47-.07,2.73-.13,3.2-.21a.5.5,0,0,1,.49.21c5.49,8,32.81,47.79,31.42,51.47a.83.83,0,0,1-.57.51c-1.07.26-3.51,1.79-6.34,3.55C112.78,232.94,105.63,237.4,101.17,237.4Zm-8.09-62.57c-.62.07-1.66.12-3,.17-4.09.19-11.71.53-13,2a.43.43,0,0,0-.13.33c.3,2.95,7.66,33.08,9.71,41,2.19,8.45,8,15,12.84,17.69,3.4,1.91,12.32-3.65,18.23-7.34a38.18,38.18,0,0,1,6.52-3.64C124.73,222.07,105.54,192.89,93.08,174.83Z" fill="#231f20"/><path d="M149.76,155.85S79.61,153,79.31,158s34.67,78.71,39.78,79.79,5.64-3.78,7.6-3.29,21.74-5.6,28-11-10.54-46.22-9.81-51.28S155.52,156.57,149.76,155.85Z" fill="#fff"/><path d="M120.48,238.46a6.81,6.81,0,0,1-1.49-.17c-3.45-.72-16.72-27.28-22.27-38.67-8.8-18.07-18.07-38.81-17.91-41.62.07-1.09.21-3.64,35.84-3.45,17.38.08,35,.8,35.13.81h0a2.36,2.36,0,0,1,2,1.2c.91,1.83-1.06,5.2-3.14,8.77-1.51,2.57-3.06,5.24-3.32,7-.25,1.65,1.68,7.93,3.91,15.19,4.47,14.57,10,32.7,5.72,36.39-6.3,5.4-26.27,11.6-28.42,11.05-.44-.1-.83.3-1.49,1A5.86,5.86,0,0,1,120.48,238.46Zm-8-83c-20.81,0-32.54,1.05-32.63,2.55-.14,2.25,7.86,20.71,17.81,41.14C110.21,225,117.53,237,119.19,237.32c2.86.6,4.08-.76,5.15-2,.74-.82,1.43-1.58,2.48-1.32,1.68.41,21.27-5.49,27.52-10.85,3.81-3.26-2.11-22.56-6-35.33-2.36-7.69-4.22-13.76-3.95-15.64s1.9-4.74,3.45-7.4c1.77-3,3.78-6.47,3.11-7.82a1.44,1.44,0,0,0-1.21-.65C135.28,155.76,122.75,155.5,112.44,155.5Z" fill="#231f20"/><path d="M277.46,221.84s10.7-.3,12.09-1,9.41-11.1,11.29-13.58,2.38-5.35,3.67-5.94,2.08-1.59,2.57,0-2.18,13-4,19.22-3.86,14.57-5.35,15.56-5.45-.3-6.54-1.39a22.12,22.12,0,0,0-4-2.58s-12.79.1-13-.19S277.46,221.84,277.46,221.84Z" fill="#fff"/><path d="M296.25,237a9.26,9.26,0,0,1-5.37-1.89,20.77,20.77,0,0,0-3.73-2.43c-12.93.1-13.09-.14-13.28-.42s-.33-.5,3.12-10.54a.48.48,0,0,1,.45-.34c4.1-.11,10.94-.47,11.88-.94s7.12-8.16,11.12-13.43a16.7,16.7,0,0,0,1.87-3.31c.63-1.33,1.13-2.39,2-2.79a5.7,5.7,0,0,0,.74-.4c.58-.33,1.12-.64,1.67-.43a1.67,1.67,0,0,1,.85,1.14c.6,1.92-2.55,14.56-4,19.51-.29,1-.59,2.09-.89,3.17-2,7.09-3.36,11.79-4.66,12.66A3.27,3.27,0,0,1,296.25,237Zm-9-5.31a.54.54,0,0,1,.22,0,22.08,22.08,0,0,1,4.09,2.67c1,1,4.7,2.13,5.91,1.32s2.92-7.3,4.26-12.1c.3-1.08.6-2.16.89-3.18,2.08-7.28,4.37-17.66,4-18.94-.14-.44-.26-.5-.26-.5s-.56.22-.81.37-.52.3-.82.44c-.54.24-1,1.2-1.5,2.31a18.71,18.71,0,0,1-2,3.48c-.4.53-9.81,12.89-11.47,13.72-1.35.67-9.89,1-12,1-1.07,3.13-2.62,7.8-3,9.21,1.71.13,8.26.14,12.41.11Z" fill="#231f20"/><path d="M161.56,236.91S216,230,219.88,229.67,279,233.53,281,233.23s2.53-12.78,2.53-12.78-53.47-14.4-68.63-13.67c-8.77.42-37.2,0-37.2,0Z" fill="#231f20"/><path d="M161.56,237.41a.49.49,0,0,1-.44-.73l16.11-30.14a.5.5,0,0,1,.45-.26c.28,0,28.51.41,37.16,0,15.07-.72,66.6,13.1,68.79,13.69a.49.49,0,0,1,.37.5c-.18,3.88-.84,12.93-2.95,13.26-.92.14-10.88-.52-27.06-1.59-15-1-32-2.13-34.07-2-3.8.29-57.75,7.17-58.3,7.24ZM178,207.28l-15.51,29c7.53-1,53.79-6.85,57.39-7.12,2.09-.16,18.42.92,34.21,2,12.76.85,25.95,1.73,26.84,1.6s1.75-5.65,2.08-11.91c-4.88-1.3-53.86-14.24-68.09-13.55C206.7,207.67,181.07,207.32,178,207.28Z" fill="#231f20"/><path d="M236.57,217.13s5.35,8.62,5.94,10.41.6,6.69,1.78,8.92,34.93,1.79,34.79.46-14.57-7.3-18.36-10S247,210,247,210Z" fill="#fff"/><path d="M261.48,238.49c-8.45,0-16.91-.45-17.62-1.79s-1.06-3.82-1.31-5.92a19.26,19.26,0,0,0-.51-3.09c-.46-1.36-4.06-7.33-5.9-10.3a.49.49,0,0,1,.14-.67l10.41-7.13a.5.5,0,0,1,.69.12c.1.14,9.95,14.23,13.63,16.83a88.1,88.1,0,0,0,9.19,4.82c7.17,3.48,9.27,4.62,9.37,5.5q.06.54-.72.78C277.4,238.09,269.45,238.49,261.48,238.49Zm-24.24-21.22c1.08,1.75,5.21,8.5,5.74,10.11a19.82,19.82,0,0,1,.56,3.28,18.54,18.54,0,0,0,1.19,5.57c.54.59,6.07,1.27,16.9,1.3,8.31.05,15-.37,16.73-.78a83.85,83.85,0,0,0-8.59-4.49,89,89,0,0,1-9.34-4.91c-3.5-2.47-11.9-14.27-13.58-16.66Z" fill="#231f20"/><path d="M139.85,230c.9.6,4.83,6.36,21.71,6.95s44.68-50.5,44.68-50.5l29.34,34.44,13.47-8.52s-18.43-51.22-26.75-56.48-22-1.39-28,2.47-34.78,43.4-34.78,43.4Z" fill="#231f20"/><path d="M161.85,237.42h-.31c-15.14-.53-20-5.17-21.59-6.69-.17-.16-.29-.28-.37-.34a.49.49,0,0,1-.22-.32.55.55,0,0,1,.08-.38l19.72-28.24c1.19-1.63,29-39.67,34.92-43.54,5.57-3.62,19.64-8.06,28.48-2.47,8.38,5.29,26.21,54.63,27,56.73a.5.5,0,0,1-.2.59l-13.48,8.52a.51.51,0,0,1-.65-.1l-28.86-33.88a286.29,286.29,0,0,1-15.69,24.89C178.68,228.93,169,237.42,161.85,237.42Zm-21.33-7.54.12.11c1.53,1.46,6.17,5.9,20.93,6.42h.29c16.41,0,43.67-49.74,43.95-50.25a.47.47,0,0,1,.38-.25.49.49,0,0,1,.44.17l29,34.1,12.77-8.07c-1.7-4.68-18.7-51-26.41-55.84-4.17-2.64-16.5-4.63-27.4,2.46-5.8,3.77-34.36,42.88-34.65,43.28Z" fill="#231f20"/><path d="M154.29,195c0-.59,7.33-10.25,9.16-11.15a56.12,56.12,0,0,0,5.11-3.12l-2.74-6.22s-2.17.87-1.72-1.06-3.43-4.63-3.43-4.63-5.06,4.5-5.18,9.68c-.1,4.17-11.31,10.85-11.31,10.85Z" fill="#fff"/><path d="M154.29,195.46a.54.54,0,0,1-.25-.06l-10.1-5.65a.5.5,0,0,1,0-.87c3-1.82,11-7.24,11.06-10.43.13-5.33,5.14-9.86,5.35-10a.51.51,0,0,1,.62,0c.42.29,4.13,2.95,3.62,5.15-.09.38,0,.55,0,.59s.68,0,1-.1a.5.5,0,0,1,.64.26l2.74,6.22a.5.5,0,0,1-.17.61,55.39,55.39,0,0,1-5.17,3.16c-1.65.81-8.52,9.86-8.89,10.78a.49.49,0,0,1-.24.35A.47.47,0,0,1,154.29,195.46Zm-9.12-6.17,8.92,5c1.42-2.47,7.52-10.12,9.15-10.91a52,52,0,0,0,4.69-2.86l-2.39-5.43a1.84,1.84,0,0,1-1.6-.21,1.51,1.51,0,0,1-.33-1.57c.25-1.08-1.53-2.85-2.9-3.88-1.05,1-4.63,4.86-4.72,9.05C155.9,182.29,147.83,187.64,145.17,189.29Z" fill="#231f20"/><path d="M140,119c-9.88-12.15-26.29-6-31.09,7.15-1.9,5.23-3.73,10-7.27,14.34-3.16,3.91-8.1,7.36-8.29,12.86-.13,3.84,2.43,7.39,5.73,9.35s7.22,2.58,11,2.79a61.25,61.25,0,0,0,25.11-3.9c3.26-1.24,7.07-3.22,8.79-6.46,2.11-3.95-.2-6.95-1.08-11-.72-3.35.37-6.77,1.09-10.12C145.21,128.47,143.54,123.39,140,119Z" fill="#fff"/><path d="M113.41,166.08c-1.11,0-2.23,0-3.34-.09-3.33-.19-7.61-.68-11.28-2.86s-6.1-6.08-6-9.8C93,149,95.86,146,98.66,143c.92-1,1.79-1.88,2.56-2.84,3.4-4.2,5.2-8.73,7.19-14.2,2.63-7.21,8.84-12.62,15.82-13.79,6.15-1,11.88,1.27,16.12,6.49h0c3.92,4.82,5.32,10,4.15,15.46-.12.55-.25,1.11-.38,1.66-.63,2.73-1.29,5.56-.71,8.24a28,28,0,0,0,.91,3.06c.9,2.67,1.75,5.2.12,8.26-1.44,2.7-4.48,4.95-9.05,6.69A62.18,62.18,0,0,1,113.41,166.08Zm13.65-53.14a16.23,16.23,0,0,0-2.67.23c-6.63,1.11-12.54,6.27-15,13.15-2,5.56-3.86,10.16-7.35,14.49-.8,1-1.73,2-2.62,2.9-2.67,2.81-5.43,5.71-5.56,9.66-.12,3.36,2,6.85,5.48,8.91s7.61,2.54,10.83,2.71A61.17,61.17,0,0,0,135,161.13c4.33-1.65,7.2-3.75,8.52-6.23,1.43-2.68.68-4.9-.19-7.47a27.46,27.46,0,0,1-.93-3.17c-.63-2.9.05-5.84.71-8.67.13-.55.26-1.1.38-1.65,1.1-5.13-.23-10-3.95-14.63h0C136.19,115.15,131.82,112.94,127.06,112.94Z" fill="#231f20"/><path d="M103.29,155.85c-4,5.16-3.27,29.13,6.24,41.61S124,226.2,145.6,234.52l17.09-34.88S148.57,187.16,148,183.19s2.17-10,.2-15.26C139.85,145.89,107.26,150.7,103.29,155.85Z" fill="#ed8936"/><path d="M130.44,150.61l-.05,9.69s.79,4-5.68,2.48-9.35-9.49-9.35-9.49l.58-14.16s10.12-5.42,8.68-15.83a13.26,13.26,0,0,0,13.56,6.92s.16,9.3-.61,14.31S130.44,150.61,130.44,150.61Z" fill="#fff"/><path d="M127.3,163.63a11.49,11.49,0,0,1-2.7-.37c-6.66-1.58-9.59-9.46-9.71-9.8a.58.58,0,0,1,0-.19l.58-14.16a.49.49,0,0,1,.27-.42c.09-.05,9.79-5.39,8.41-15.32a.5.5,0,0,1,.35-.54.49.49,0,0,1,.6.25,12.65,12.65,0,0,0,13,6.65.5.5,0,0,1,.39.12.51.51,0,0,1,.18.37c0,.38.15,9.39-.61,14.38-.7,4.6-5.65,6.08-7.13,6.42l-.05,9.28h0a2.83,2.83,0,0,1-.79,2.42A3.85,3.85,0,0,1,127.3,163.63Zm-11.44-10.42c.34.86,3.19,7.71,9,9.09,2.24.53,3.83.43,4.58-.3a1.94,1.94,0,0,0,.49-1.61l0-9.78a.51.51,0,0,1,.42-.49c.06,0,6-1.08,6.72-5.67a109.36,109.36,0,0,0,.61-13.67,13.58,13.58,0,0,1-12.44-5.57c.06,8.47-7.35,13.33-8.82,14.21Z" fill="#231f20"/><path d="M119,138.6a5,5,0,0,0-5.23-3.5c-2.81.44-2.77,3.62-1.89,5.67a5.13,5.13,0,0,0,6.79,2.65" fill="#fff"/><path d="M116.58,144.36a5.6,5.6,0,0,1-5.16-3.4,5.82,5.82,0,0,1-.09-4.77,3.14,3.14,0,0,1,2.37-1.58,5.47,5.47,0,0,1,5.78,3.87.49.49,0,1,1-1,.24,4.57,4.57,0,0,0-4.67-3.13,2.12,2.12,0,0,0-1.64,1.08,4.79,4.79,0,0,0,.13,3.9,4.61,4.61,0,0,0,6.13,2.39.51.51,0,0,1,.66.25.5.5,0,0,1-.26.66A5.68,5.68,0,0,1,116.58,144.36Z" fill="#231f20"/><path d="M132,135.23s3.58,4.92,2.81,5.83-3,.42-3,.42" fill="#fff"/><path d="M133.05,142.11a8,8,0,0,1-1.4-.14.5.5,0,0,1,.21-1c.65.14,2.13.26,2.56-.25.16-.46-1.16-2.91-2.83-5.22a.48.48,0,0,1,.11-.69.5.5,0,0,1,.69.11c1.74,2.39,3.64,5.45,2.79,6.44A2.74,2.74,0,0,1,133.05,142.11Z" fill="#231f20"/><ellipse cx="129.11" cy="132.62" rx="0.79" ry="1.83" transform="translate(-3.83 3.84) rotate(-1.68)" fill="#231f20"/><ellipse cx="135.84" cy="133.4" rx="0.79" ry="1.83" transform="translate(-3.85 4.04) rotate(-1.68)" fill="#231f20"/><path d="M130.44,150.61s-3.68.67-8.06-2.2c0,0,1.62,6.81,8,7.44Z" fill="#231f20"/><path d="M130.41,156.35h0c-6.7-.66-8.45-7.76-8.47-7.83a.48.48,0,0,1,.2-.52.5.5,0,0,1,.56,0,11.52,11.52,0,0,0,7.69,2.13.54.54,0,0,1,.41.11.5.5,0,0,1,.18.39l0,5.24a.48.48,0,0,1-.16.36A.51.51,0,0,1,130.41,156.35Zm-7.13-6.83c.74,1.83,2.61,5.11,6.64,5.77l0-4.12A12.61,12.61,0,0,1,123.28,149.52Z" fill="#231f20"/><path d="M126.41,138.6s0,9.83,8.63,6.66" fill="#fff"/><path d="M131.92,146.39a5.19,5.19,0,0,1-3.06-.91c-2.91-2-3-6.68-3-6.88a.51.51,0,0,1,.5-.5h0a.5.5,0,0,1,.5.5s0,4.33,2.52,6.06c1.33.93,3.16,1,5.44.13a.5.5,0,0,1,.34.94A9.61,9.61,0,0,1,131.92,146.39Z" fill="#231f20"/><path d="M185.88,186.41c-.44-.15-11.74-3-11.74-3s18.88-29.87,19.32-30,16.2-3.3,16.2-3.3Z" fill="#fff"/><path d="M185.88,186.91l-.16,0c-.34-.12-7.19-1.84-11.7-3a.5.5,0,0,1-.3-.75c19-30,19.37-30.15,19.58-30.23.46-.15,13.63-2.78,16.27-3.31a.5.5,0,0,1,.51.77L186.3,186.69A.52.52,0,0,1,185.88,186.91Zm-10.95-3.79c2.3.58,9,2.27,10.73,2.72l22.94-35c-5.9,1.18-13.77,2.77-14.87,3C192.6,155.3,182.1,171.78,174.93,183.12Z" fill="#231f20"/><polygon points="174.14 183.44 160.67 176.12 178.9 149.7 193.46 153.42 174.14 183.44" fill="#fff"/><path d="M174.14,183.94a.53.53,0,0,1-.24-.06l-13.47-7.32a.49.49,0,0,1-.24-.32.47.47,0,0,1,.07-.4l18.23-26.42a.49.49,0,0,1,.53-.2l14.56,3.71a.5.5,0,0,1,.35.3.54.54,0,0,1-.05.46l-19.32,30A.51.51,0,0,1,174.14,183.94Zm-12.74-8L174,182.78l18.7-29.05-13.56-3.46Z" fill="#231f20"/><path d="M119,190.72s13.32,22,23.83,26S183.26,190,183.26,190s3.66,1.68,7.43-3.27a38.35,38.35,0,0,0,5.43-10.06s1.95-4,1.21-6.41c-.63-2.09-2.62,2-2.62,2s-3.35,5.21-5.34,4.72-.29-5.8-.89-7.36-3.54,4-4.23,6.37-4.36,6.74-5.95,8.12S153,201.72,151,201.57s-16.41-17.68-16.41-17.68Z" fill="#fff"/><path d="M144.91,217.53a6.31,6.31,0,0,1-2.26-.38c-10.54-4-23.53-25.26-24.08-26.17a.49.49,0,0,1,0-.41.5.5,0,0,1,.27-.3l15.54-6.84a.51.51,0,0,1,.59.14c6.9,8.45,14.8,17.31,16.06,17.51,2,0,24.92-15.47,27-17.27,1.61-1.41,5.16-5.7,5.8-7.89.48-1.67,2.87-6.94,4.37-7a.8.8,0,0,1,.81.6,8.34,8.34,0,0,1,.05,3.1c-.14,1.58-.33,3.74.5,3.95,1.11.26,3.48-2.47,4.79-4.51.51-1.06,1.57-2.94,2.59-2.86.3,0,.7.21.92.94.79,2.61-1.15,6.61-1.24,6.78a37.8,37.8,0,0,1-5.48,10.14c-3.34,4.4-6.64,3.87-7.69,3.55C180.6,193.43,156.49,217.53,144.91,217.53ZM119.73,191c2,3.24,13.91,21.73,23.27,25.27,4.12,1.55,12.3-2.51,23.66-11.76,8.67-7.06,16.16-14.7,16.24-14.78a.49.49,0,0,1,.56-.1c.14.06,3.37,1.43,6.83-3.12a38.33,38.33,0,0,0,5.36-9.92c0-.1,1.87-3.87,1.2-6.11a.57.57,0,0,0-.12-.26,8.07,8.07,0,0,0-1.57,2.38c-.62,1-3.69,5.53-5.91,5-1.65-.41-1.43-2.85-1.24-5a11.09,11.09,0,0,0,.05-2.54c-.82.62-2.74,4.15-3.34,6.2-.72,2.48-4.41,6.88-6.09,8.36-1.31,1.15-25,17.51-27.67,17.51h0c-2.09-.15-12.87-13.11-16.52-17.57Z" fill="#231f20"/><path d="M134.54,184.38a.5.5,0,0,1-.45-.28L126.33,168a.49.49,0,0,1,.89-.43l7.77,16.1a.49.49,0,0,1-.23.66A.44.44,0,0,1,134.54,184.38Z" fill="#231f20"/><path d="M119,191.22a.5.5,0,0,1-.45-.28c-.09-.2-9.66-19.92-11.59-22.36a.5.5,0,0,1,.08-.7.49.49,0,0,1,.7.08c2,2.53,11.31,21.73,11.71,22.55a.5.5,0,0,1-.23.66A.44.44,0,0,1,119,191.22Z" fill="#231f20"/><path d="M164.1,237a.5.5,0,0,1-.15-1c11.66-3.81,29.12-29.08,29.3-29.34a.5.5,0,0,1,.69-.12.49.49,0,0,1,.13.69c-.72,1.05-17.83,25.8-29.81,29.72Z" fill="#fff"/><path d="M160.67,168.78a20,20,0,0,1,4-2.28c3.27-1.44,7.63-1.09,6.54.32s-8.48,4.48-8.48,4.48.64,3.37-3.22,4.86" fill="#fff"/><path d="M159.47,176.66a.5.5,0,0,1-.18-1c3.41-1.31,2.94-4.18,2.91-4.3a.51.51,0,0,1,.3-.55c2.92-1.21,7.53-3.37,8.27-4.32a.4.4,0,0,0,.07-.12c-.28-.42-3.29-.64-6,.55a21.05,21.05,0,0,0-3.81,2.18.51.51,0,0,1-.7,0,.49.49,0,0,1,0-.69,19.75,19.75,0,0,1,4.11-2.39c2.71-1.19,6.35-1.3,7.2-.22a1,1,0,0,1-.07,1.3c-1,1.35-6.76,3.83-8.34,4.5a5,5,0,0,1-3.57,5A.58.58,0,0,1,159.47,176.66Z" fill="#231f20"/><path d="M119.09,228.92a.51.51,0,0,1-.48-.35C113,210.92,86,162.32,85.71,161.83a.5.5,0,0,1,.87-.48c.28.49,27.33,49.18,33,66.92a.5.5,0,0,1-.33.62A.4.4,0,0,1,119.09,228.92Z" fill="#d1d3d4"/><rect x="68.82" y="249.42" width="262.37" height="6.51" fill="#fff"/><path d="M331.18,256.42H68.82a.5.5,0,0,1-.5-.5v-6.5a.5.5,0,0,1,.5-.5H331.18a.5.5,0,0,1,.5.5v6.5A.5.5,0,0,1,331.18,256.42Zm-261.87-1H330.69v-5.51H69.31Z" fill="#231f20"/><path d="M147.16,89.42a.51.51,0,0,1-.39-.18.5.5,0,0,1,.07-.7L169.3,70A.5.5,0,0,1,170,70a.5.5,0,0,1-.07.7L147.48,89.31A.5.5,0,0,1,147.16,89.42Z" fill="#d1d3d4"/><path d="M230.1,101.42a.5.5,0,0,1-.32-.88l28.64-24a.51.51,0,0,1,.71.06.51.51,0,0,1-.06.71l-28.65,24A.52.52,0,0,1,230.1,101.42Z" fill="#d1d3d4"/><path d="M158.39,116.35a.49.49,0,0,1-.38-.18.51.51,0,0,1,.06-.71l17.71-14.92a.5.5,0,1,1,.65.77l-17.72,14.92A.49.49,0,0,1,158.39,116.35Z" fill="#d1d3d4"/><path d="M273.59,185.42a.52.52,0,0,1-.38-.17.51.51,0,0,1,.05-.71l11.32-9.87a.5.5,0,1,1,.66.75l-11.32,9.88A.52.52,0,0,1,273.59,185.42Z" fill="#d1d3d4"/><path d="M236.8,151.23a.5.5,0,0,1-.32-.89l32.22-26.81a.49.49,0,0,1,.7.06.51.51,0,0,1-.06.71l-32.22,26.81A.51.51,0,0,1,236.8,151.23Z" fill="#d1d3d4"/></g></svg>