<svg xmlns="http://www.w3.org/2000/svg" xmlns:xlink="http://www.w3.org/1999/xlink" viewBox="0 0 413.87 512"><defs><style>.cls-1,.cls-10,.cls-11,.cls-2,.cls-3,.cls-4,.cls-5,.cls-6,.cls-7,.cls-8,.cls-9{fill-rule:evenodd;}.cls-1{fill:url(#radial-gradient);}.cls-2{fill:url(#linear-gradient);}.cls-3{fill:url(#linear-gradient-2);}.cls-4{fill:url(#linear-gradient-3);}.cls-5{fill:url(#linear-gradient-4);}.cls-6{fill:url(#radial-gradient-2);}.cls-7{fill:url(#linear-gradient-5);}.cls-8{fill:url(#linear-gradient-6);}.cls-9{fill:url(#radial-gradient-3);}.cls-10{fill:url(#linear-gradient-7);}.cls-11{fill:url(#linear-gradient-8);}</style><radialGradient id="radial-gradient" cx="-376.56" cy="-289.15" r="1346.08" gradientUnits="userSpaceOnUse"><stop offset="0" stop-color="#fff"/><stop offset="0.5" stop-color="#3abbd0"/><stop offset="1" stop-color="#491d86"/></radialGradient><linearGradient id="linear-gradient" x1="195.37" y1="42.79" x2="242.06" y2="77.38" gradientUnits="userSpaceOnUse"><stop offset="0" stop-color="#323390"/><stop offset="1" stop-color="#323390" stop-opacity="0"/></linearGradient><linearGradient id="linear-gradient-2" x1="151.07" y1="124.41" x2="163.52" y2="139.83" xlink:href="#linear-gradient"/><linearGradient id="linear-gradient-3" x1="-50.11" y1="170.46" x2="79.82" y2="233.26" gradientUnits="userSpaceOnUse"><stop offset="0" stop-color="#fff"/><stop offset="1" stop-color="#fff" stop-opacity="0"/></linearGradient><linearGradient id="linear-gradient-4" x1="48.84" y1="76.15" x2="169.03" y2="128.12" xlink:href="#linear-gradient-3"/><radialGradient id="radial-gradient-2" cx="-464.27" cy="95.22" r="1003.26" xlink:href="#radial-gradient"/><linearGradient id="linear-gradient-5" x1="781.94" y1="245.74" x2="12" y2="245.74" xlink:href="#linear-gradient"/><linearGradient id="linear-gradient-6" x1="1062.11" y1="764.83" x2="63.84" y2="229.96" xlink:href="#linear-gradient"/><radialGradient id="radial-gradient-3" cx="-323.51" cy="221.9" r="673.81" xlink:href="#radial-gradient"/><linearGradient id="linear-gradient-7" x1="404.22" y1="532.57" x2="162.78" y2="266.23" xlink:href="#linear-gradient"/><linearGradient id="linear-gradient-8" x1="529.52" y1="101.54" x2="104.01" y2="475.08" xlink:href="#linear-gradient"/></defs><title>Asset 7</title><g id="Layer_2" data-name="Layer 2"><g id="Layer_1-2" data-name="Layer 1"><path class="cls-1" d="M350.74,210.07a210.93,210.93,0,0,1,52.49,13.24c-40.77-51.27-90.74-86.29-157-92.66C278.5,98.37,298.35,54.1,299.07,0,276.71,45.93,244,79.47,203.57,103.89q1.76-16-5.12-33.85c-7.95,22-43.28,41.17-77.18,53.42C97.7,132,90.12,152.65,98.38,165c-31.57,38.79-69.64,42.93-55.81,6.83C-5.38,206.43-3.72,240.28,4.41,274.05c51.81-45.35,118-57.74,199-36.05q-14.81-23.58-43.81-37.36c130.74-8.39,261.12,134.42,152.69,274.05a193.8,193.8,0,0,0,77-124.95,180.37,180.37,0,0,1,24.6,29.46C413.51,308.57,391.87,248.55,350.74,210.07ZM42.35,222.91c-.09-9.79-15-4.4-21.42,6.15C27.66,207.42,50,202.7,42.35,222.91Zm78.79-58.5c-1.89-18.32,20.07-23,39.69-30.93C156.16,150.36,142.55,160.42,121.14,164.41Z"/><path class="cls-2" d="M203.57,103.89c-1.84,16.43-10.55,31.47-26.4,45C237.33,120.45,278.73,76.68,299.07,0,276.71,45.93,244,79.47,203.57,103.89Z"/><path class="cls-3" d="M143.63,156.28c18.32-5.65,32.1-18.54,38.07-35-5.43,5.3-13,9-20.87,12.22A37.88,37.88,0,0,1,143.63,156.28Z"/><path class="cls-4" d="M98.38,165c-31.57,38.79-69.64,42.93-55.81,6.83C-5.38,206.43-3.72,240.28,4.41,274.05c-1.12-10.24,7.32-38.52,16.52-45,6.73-21.64,29.05-26.36,21.42-6.15a14.11,14.11,0,0,0,6-7.54c30.31-7.32,49.66-23.35,67-41C107.26,173.35,101.61,169.8,98.38,165Z"/><path class="cls-5" d="M121.27,123.46C97.7,132,90.12,152.65,98.38,165c3.23,4.81,8.88,8.36,17,9.39-7.59-12.62-7.68-25.59,5.92-34.84,25.51-17.33,72-32.69,77.18-69.5C190.5,92,155.17,111.21,121.27,123.46Z"/><path class="cls-6" d="M159.62,200.64q28.95,13.8,43.81,37.36C128.86,218.06,66.81,227,17,263.86c14.05,20.56,36.64,29.09,63.53,31.6-27.2-26.44,16.7-40.54,64.61-34.75,66.4,8,113.91,50.33,91.28,117.45,16.29-8.66,36.5-26.31,39-47C307,453.27,141.48,509.53,47.73,440.71a193.92,193.92,0,0,0,264.58,34C420.74,335.06,290.36,192.25,159.62,200.64Z"/><path class="cls-7" d="M17,263.86c48.72-29.46,111.26-39.2,176.27-14.06A90.25,90.25,0,0,0,180,232.61C115.8,220.26,61.52,230.9,17,263.86Z"/><path class="cls-8" d="M159.62,200.64a124.62,124.62,0,0,1,18,10.42c117.27,8.84,223.67,130.6,134.73,263.63C420.74,335.06,290.36,192.25,159.62,200.64Z"/><path class="cls-9" d="M236.44,378.16c16-47.59-3.19-82.7-39.38-102,42.61,43.36,6.24,102-47.95,119.6-50.87,16.52-117.63-4.05-145-77.63A193,193,0,0,0,47.73,440.71C141.48,509.53,307,453.27,275.41,331.2,272.94,351.85,252.73,369.5,236.44,378.16Z"/><path class="cls-10" d="M197.06,276.21c27.84,20.24,40.9,52.39,26.8,94.14A95.75,95.75,0,0,0,241.2,358.5C246.63,320.83,228.09,292.68,197.06,276.21Z"/><path class="cls-11" d="M268.63,349.38c10,98.24-121.85,152.34-220.9,91.33C141.48,509.53,307,453.27,275.41,331.2A44.34,44.34,0,0,1,268.63,349.38Z"/></g></g></svg>